# xmcd
#
# Track frame offsets:
#	150
#	14980
#	28798
#	43109
#	57432
#	72519
#	85653
#	98739
#	113763
#	126714
#	140856
#	154944
#	169461
#	182628
#
# Disc length: 2630 seconds
#
# Revision: 1
# Processed by: cddbd v1.5.2PL0 Copyright (c) Steve Scherf et al.
# Submitted via: EasyCDDAExtractor 12.0.4.1
#
DISCID=d70a440e
DTITLE=Various Artist - รวมฮิตแม่ไม้เพลงลูกทุ่ง ชุด ๕
DYEAR=1968
DGENRE=Country
TTITLE0=แล้วจะรู้ว่าพี่รัก
TTITLE1=ฝนหนาวสาวครวญ
TTITLE2=กุหลาบเวียงจันทร์
TTITLE3=ช่างร้ายเหลือ
TTITLE4=ตาลต้นเดียว
TTITLE5=รักพี่จงหนีพ่อ
TTITLE6=ชายไร้โบสถ์
TTITLE7=รอยไถแปร
TTITLE8=คะนึงนอนนครสวรรค์
TTITLE9=กระท่อมพ่อม่าย
TTITLE10=แม่สื่อแม่ชัก
TTITLE11=ล่องใต้
TTITLE12=รักริงโง
TTITLE13=อาณาจักรใจ
EXTD=
EXTT0=
EXTT1=
EXTT2=
EXTT3=
EXTT4=
EXTT5=
EXTT6=
EXTT7=
EXTT8=
EXTT9=
EXTT10=
EXTT11=
EXTT12=
EXTT13=
PLAYORDER=
